<svg width="673" height="79" viewBox="0 0 673 79" fill="none" xmlns="http://www.w3.org/2000/svg">
<path d="M587.016 71.9156C586.116 71.9156 585.216 71.7157 584.416 71.2157C582.016 69.8157 581.316 66.7156 582.716 64.3156L594.916 43.9156C595.816 42.5156 597.316 41.5156 599.016 41.5156C600.716 41.4156 602.316 42.2156 603.316 43.6156L608.516 50.8156L619.516 32.0156C620.316 30.6156 621.916 29.6156 623.516 29.5156C625.216 29.4156 626.816 30.2156 627.816 31.5156L637.416 44.4156L662.716 2.41557C664.116 0.0155685 667.216 -0.684432 669.616 0.71557C672.016 2.11557 672.716 5.21558 671.316 7.61558L642.216 55.9156C641.316 57.3156 639.816 58.2156 638.216 58.3156C636.516 58.4156 634.916 57.6156 633.916 56.3156L624.316 43.5156L613.216 62.3156C612.316 63.8156 610.816 64.7156 609.116 64.8156C607.416 64.9156 605.816 64.1156 604.816 62.7156L599.616 55.5156L591.316 69.4156C590.416 71.0156 588.716 71.9156 587.016 71.9156Z" fill="white"/>
<path d="M69.0449 58.1062L39.9146 28.9759C42.7799 21.6535 41.188 12.8985 35.2983 7.00877C28.931 0.641489 19.3801 -0.631969 11.7393 3.02922L25.5882 16.8781L15.8781 26.5882L2.02922 12.7393C-1.63197 20.3801 -0.358512 29.931 6.00878 36.2983C11.8985 42.188 20.6535 43.7799 27.9759 40.9146L57.1063 70.0449C58.3797 71.3184 60.4491 71.3184 61.5634 70.0449L69.0449 62.5633C70.3184 61.4491 70.3184 59.3797 69.0449 58.1062Z" fill="white"/>
<g filter="url(#filter0_d)">
<path d="M301.938 22.875C303.441 22.875 304.854 23.1655 306.176 23.7466C307.497 24.3276 308.654 25.1138 309.645 26.105C310.636 27.0962 311.422 28.2526 312.003 29.5742C312.584 30.8958 312.875 32.3086 312.875 33.8125C312.875 35.3164 312.584 36.7349 312.003 38.0679C311.422 39.4009 310.636 40.563 309.645 41.5542C308.654 42.5454 307.497 43.3258 306.176 43.8955C304.854 44.4652 303.441 44.75 301.938 44.75C300.434 44.75 299.015 44.4652 297.682 43.8955C296.349 43.3258 295.187 42.5454 294.196 41.5542C293.205 40.563 292.424 39.4009 291.854 38.0679C291.285 36.7349 291 35.3164 291 33.8125C291 32.3086 291.285 30.8958 291.854 29.5742C292.424 28.2526 293.205 27.0962 294.196 26.105C295.187 25.1138 296.349 24.3276 297.682 23.7466C299.015 23.1655 300.434 22.875 301.938 22.875ZM301.938 40.375C302.849 40.375 303.703 40.2041 304.501 39.8623C305.299 39.5205 305.993 39.0534 306.586 38.4609C307.178 37.8685 307.646 37.1735 307.987 36.376C308.329 35.5784 308.5 34.724 308.5 33.8125C308.5 32.901 308.329 32.0465 307.987 31.249C307.646 30.4515 307.178 29.7565 306.586 29.1641C305.993 28.5716 305.299 28.1045 304.501 27.7627C303.703 27.4209 302.849 27.25 301.938 27.25C301.026 27.25 300.172 27.4209 299.374 27.7627C298.576 28.1045 297.882 28.5716 297.289 29.1641C296.697 29.7565 296.229 30.4515 295.888 31.249C295.546 32.0465 295.375 32.901 295.375 33.8125C295.375 34.724 295.546 35.5784 295.888 36.376C296.229 37.1735 296.697 37.8685 297.289 38.4609C297.882 39.0534 298.576 39.5205 299.374 39.8623C300.172 40.2041 301.026 40.375 301.938 40.375ZM354.301 43.041C355.349 43.7246 356.289 44.5335 357.121 45.4678C357.952 46.402 358.653 47.416 359.223 48.5098C359.792 49.6035 360.231 50.7599 360.539 51.979C360.846 53.1981 361 54.4342 361 55.6875C361 57.8066 360.601 59.7948 359.804 61.6519C359.006 63.509 357.912 65.1325 356.522 66.5225C355.132 67.9124 353.509 69.0062 351.652 69.8037C349.795 70.6012 347.807 71 345.688 71C343.568 71 341.58 70.6012 339.723 69.8037C337.866 69.0062 336.243 67.9124 334.853 66.5225C333.463 65.1325 332.369 63.509 331.571 61.6519C330.774 59.7948 330.375 57.8066 330.375 55.6875C330.375 54.5482 330.489 53.4772 330.717 52.4746C328.712 51.8138 326.883 50.8682 325.231 49.6377C323.579 48.4072 322.16 46.9717 320.976 45.3311C319.791 43.6904 318.874 41.8903 318.224 39.9307C317.575 37.971 317.25 35.9316 317.25 33.8125C317.25 31.1009 317.768 28.5488 318.805 26.1562C319.842 23.7637 321.249 21.6787 323.026 19.9014C324.804 18.124 326.889 16.717 329.281 15.6802C331.674 14.6434 334.226 14.125 336.938 14.125C337.348 14.125 337.758 14.1364 338.168 14.1592C338.578 14.182 338.988 14.2161 339.398 14.2617C339.216 13.4642 339.125 12.6895 339.125 11.9375C339.125 10.4336 339.41 9.02083 339.979 7.69922C340.549 6.3776 341.33 5.22119 342.321 4.22998C343.312 3.23877 344.474 2.45264 345.807 1.87158C347.14 1.29053 348.559 1 350.062 1C351.566 1 352.979 1.29053 354.301 1.87158C355.622 2.45264 356.779 3.23877 357.77 4.22998C358.761 5.22119 359.547 6.3776 360.128 7.69922C360.709 9.02083 361 10.4336 361 11.9375C361 13.1452 360.806 14.313 360.419 15.4409C360.032 16.5688 359.485 17.5942 358.778 18.5171C358.072 19.4399 357.229 20.2432 356.249 20.9268C355.269 21.6104 354.198 22.123 353.036 22.4648C354.221 24.1283 355.115 25.9227 355.719 27.8481C356.323 29.7736 356.625 31.7617 356.625 33.8125C356.625 35.4303 356.431 37.014 356.044 38.5635C355.657 40.113 355.076 41.6055 354.301 43.041ZM343.5 11.9375C343.5 13.3503 343.922 14.6149 344.765 15.7314C345.562 16.0732 346.337 16.472 347.089 16.9277C347.841 17.3835 348.559 17.8848 349.242 18.4316C349.379 18.4544 349.516 18.4715 349.652 18.4829C349.789 18.4943 349.926 18.5 350.062 18.5C350.974 18.5 351.828 18.3291 352.626 17.9873C353.424 17.6455 354.118 17.1784 354.711 16.5859C355.303 15.9935 355.771 15.2985 356.112 14.501C356.454 13.7035 356.625 12.849 356.625 11.9375C356.625 11.026 356.454 10.1715 356.112 9.37402C355.771 8.5765 355.303 7.88151 354.711 7.28906C354.118 6.69661 353.424 6.22949 352.626 5.8877C351.828 5.5459 350.974 5.375 350.062 5.375C349.151 5.375 348.297 5.5459 347.499 5.8877C346.701 6.22949 346.007 6.69661 345.414 7.28906C344.822 7.88151 344.354 8.5765 344.013 9.37402C343.671 10.1715 343.5 11.026 343.5 11.9375ZM321.625 33.8125C321.625 35.4531 321.881 37.0425 322.394 38.5806C322.907 40.1187 323.63 41.5314 324.564 42.8188C325.499 44.1063 326.615 45.2285 327.914 46.1855C329.213 47.1426 330.648 47.8717 332.221 48.373C333.633 45.8893 335.513 43.9354 337.86 42.5112C340.207 41.0871 342.816 40.375 345.688 40.375C347.305 40.375 348.866 40.6143 350.37 41.0928C350.985 39.9762 351.452 38.8027 351.771 37.5723C352.09 36.3418 352.25 35.0885 352.25 33.8125C352.25 31.6478 351.811 29.5856 350.934 27.626C350.057 25.6663 348.832 23.9574 347.26 22.499L347.123 22.4648C346.326 21.804 345.534 21.2344 344.748 20.7559C343.961 20.2773 343.09 19.833 342.133 19.4229L342.099 19.3887C340.435 18.7962 338.715 18.5 336.938 18.5C334.818 18.5 332.83 18.9045 330.973 19.7134C329.116 20.5223 327.498 21.616 326.12 22.9946C324.741 24.3732 323.647 25.991 322.838 27.8481C322.029 29.7052 321.625 31.6934 321.625 33.8125ZM345.688 66.625C347.191 66.625 348.604 66.3402 349.926 65.7705C351.247 65.2008 352.404 64.4204 353.395 63.4292C354.386 62.438 355.172 61.2759 355.753 59.9429C356.334 58.6099 356.625 57.1914 356.625 55.6875C356.625 54.0924 356.329 52.6284 355.736 51.2954C355.144 49.9624 354.335 48.8117 353.31 47.8433C352.284 46.8748 351.088 46.1172 349.721 45.5703C348.354 45.0234 346.895 44.75 345.346 44.75C343.887 44.75 342.514 45.0519 341.227 45.6558C339.94 46.2596 338.817 47.0685 337.86 48.0825C336.903 49.0965 336.146 50.2586 335.587 51.5688C335.029 52.8791 334.75 54.252 334.75 55.6875C334.75 57.1914 335.035 58.6099 335.604 59.9429C336.174 61.2759 336.955 62.438 337.946 63.4292C338.937 64.4204 340.099 65.2008 341.432 65.7705C342.765 66.3402 344.184 66.625 345.688 66.625Z" fill="white"/>
</g>
<defs>
<filter id="filter0_d" x="287" y="1" width="78" height="78" filterUnits="userSpaceOnUse" color-interpolation-filters="sRGB">
<feFlood flood-opacity="0" result="BackgroundImageFix"/>
<feColorMatrix in="SourceAlpha" type="matrix" values="0 0 0 0 0 0 0 0 0 0 0 0 0 0 0 0 0 0 127 0"/>
<feOffset dy="4"/>
<feGaussianBlur stdDeviation="2"/>
<feColorMatrix type="matrix" values="0 0 0 0 0 0 0 0 0 0 0 0 0 0 0 0 0 0 0.25 0"/>
<feBlend mode="normal" in2="BackgroundImageFix" result="effect1_dropShadow"/>
<feBlend mode="normal" in="SourceGraphic" in2="effect1_dropShadow" result="shape"/>
</filter>
</defs>
</svg>
