<svg width="45" height="50" viewBox="0 0 45 50" fill="none" xmlns="http://www.w3.org/2000/svg">
<path fill-rule="evenodd" clip-rule="evenodd" d="M42.4103 38.3637C41.9379 37.9318 38.1302 34.2727 38.1302 22.0909C38.1302 18.1022 35.7227 13.4773 32.9325 10.2273C31.5224 8.5814 29.7646 7.2695 27.786 6.38638C27.8052 6.2852 27.8154 6.18251 27.8166 6.07954C27.7514 4.46702 27.0654 2.94226 25.9022 1.82441C24.739 0.706571 23.1887 0.0822754 21.576 0.0822754C19.9632 0.0822754 18.4129 0.706571 17.2497 1.82441C16.0865 2.94226 15.4005 4.46702 15.3353 6.07954C15.3365 6.18251 15.3467 6.2852 15.3659 6.38638C13.3878 7.26981 11.6304 8.58168 10.2205 10.2273C7.5245 13.5909 6.06517 17.7791 6.08684 22.0909C6.08684 34.2613 2.29056 37.8977 1.81474 38.3295C1.1677 38.6261 0.64385 39.1386 0.333064 39.7793C0.0222782 40.4199 -0.0560858 41.1487 0.111336 41.8409C0.289931 42.5713 0.715856 43.2172 1.31667 43.6689C1.91748 44.1205 2.65606 44.35 3.40683 44.3182H13.6273C13.7132 45.3208 14.1866 46.2504 14.9468 46.9091C15.8587 47.8855 16.9616 48.6638 18.1868 49.1955C19.412 49.7272 20.7335 50.0009 22.069 49.9999C23.4045 49.9988 24.7255 49.7229 25.9499 49.1892C27.1743 48.6556 28.2758 47.8756 29.1862 46.8978C29.8556 46.1527 30.3585 45.2732 30.6613 44.3182H40.8818C41.6274 44.3547 42.3626 44.1311 42.9618 43.6855C43.561 43.2399 43.987 42.6 44.1671 41.875C44.3228 41.1768 44.2331 40.4463 43.9131 39.8066C43.593 39.1669 43.0623 38.6572 42.4103 38.3637ZM21.5765 3.31825C22.1546 3.36258 22.709 3.56656 23.178 3.90765C23.6469 4.24874 24.0121 4.71348 24.2327 5.25001C23.3605 5.07956 22.4691 5.68184 21.5765 5.68184C20.6839 5.68184 19.7913 5.07956 18.9192 5.25001C19.14 4.71347 19.5054 4.24886 19.9746 3.90779C20.4437 3.56672 20.9983 3.36263 21.5765 3.31825ZM21.5765 7.95456C28.7138 7.95456 34.6961 15.75 34.6961 22.0909C34.7078 25.7732 35.2615 29.4337 36.3394 32.9546H7.94925C8.99802 29.429 9.52745 25.7693 9.5209 22.0909C9.5209 15.75 14.4392 7.95456 21.5765 7.95456ZM22.0637 46.4204C20.3251 46.4204 19.3927 45.5909 18.1697 44.3182H26.1189C25.6384 44.9447 25.026 45.4579 24.3252 45.8212C23.6244 46.1845 22.8523 46.389 22.0637 46.4204ZM3.59647 40.8864C3.59647 40.8864 5.28512 39.8409 6.81365 36.3637H37.475C39.0035 39.8409 40.6921 40.8864 40.6921 40.8864H3.59647Z" fill="white"/>
</svg>
