<svg width="92" height="74" viewBox="0 0 92 74" fill="none" xmlns="http://www.w3.org/2000/svg">
<path d="M6.01563 72.9157C5.11563 72.9157 4.21563 72.7157 3.41563 72.2157C1.01563 70.8157 0.31563 67.7156 1.71563 65.3156L13.9156 44.9156C14.8156 43.5156 16.3156 42.5156 18.0156 42.5156C19.7156 42.4156 21.3156 43.2156 22.3156 44.6156L27.5156 51.8156L38.5156 33.0156C39.3156 31.6156 40.9156 30.6156 42.5156 30.5156C44.2156 30.4156 45.8156 31.2156 46.8156 32.5156L56.4156 45.4156L81.7156 3.41557C83.1156 1.01557 86.2156 0.315568 88.6156 1.71557C91.0156 3.11557 91.7156 6.21558 90.3156 8.61558L61.2156 56.9156C60.3156 58.3156 58.8156 59.2156 57.2156 59.3156C55.5156 59.4156 53.9156 58.6156 52.9156 57.3156L43.3156 44.5156L32.2156 63.3156C31.3156 64.8156 29.8156 65.7156 28.1156 65.8156C26.4156 65.9156 24.8156 65.1156 23.8156 63.7156L18.6156 56.5156L10.3156 70.4156C9.41563 72.0157 7.71563 72.9157 6.01563 72.9157Z" fill="white" stroke="black"/>
</svg>
